<svg width="40" height="41" viewBox="0 0 40 41" fill="none" xmlns="http://www.w3.org/2000/svg">
<path d="M20.0002 12.3388C15.5666 12.3388 11.9885 15.9169 11.9885 20.3505C11.9885 24.7841 15.5666 28.3622 20.0002 28.3622C24.4338 28.3622 28.0119 24.7841 28.0119 20.3505C28.0119 15.9169 24.4338 12.3388 20.0002 12.3388ZM20.0002 25.5576C17.133 25.5576 14.7932 23.2177 14.7932 20.3505C14.7932 17.4833 17.133 15.1435 20.0002 15.1435C22.8674 15.1435 25.2072 17.4833 25.2072 20.3505C25.2072 23.2177 22.8674 25.5576 20.0002 25.5576ZM28.34 10.1435C27.3049 10.1435 26.4689 10.9794 26.4689 12.0146C26.4689 13.0497 27.3049 13.8857 28.34 13.8857C29.3752 13.8857 30.2111 13.0537 30.2111 12.0146C30.2114 11.7688 30.1632 11.5253 30.0693 11.2982C29.9754 11.071 29.8376 10.8646 29.6638 10.6908C29.49 10.517 29.2836 10.3792 29.0564 10.2853C28.8293 10.1914 28.5858 10.1432 28.34 10.1435ZM35.6174 20.3505C35.6174 18.1943 35.6369 16.0576 35.5158 13.9052C35.3947 11.4052 34.8244 9.18646 32.9963 7.35834C31.1642 5.52631 28.9494 4.9599 26.4494 4.83881C24.2932 4.71771 22.1564 4.73725 20.0041 4.73725C17.8478 4.73725 15.7111 4.71771 13.5588 4.83881C11.0588 4.9599 8.84003 5.53021 7.0119 7.35834C5.17987 9.19037 4.61347 11.4052 4.49237 13.9052C4.37128 16.0615 4.39081 18.1982 4.39081 20.3505C4.39081 22.5029 4.37128 24.6435 4.49237 26.7958C4.61347 29.2958 5.18378 31.5146 7.0119 33.3427C8.84394 35.1747 11.0588 35.7412 13.5588 35.8622C15.715 35.9833 17.8517 35.9638 20.0041 35.9638C22.1603 35.9638 24.2971 35.9833 26.4494 35.8622C28.9494 35.7412 31.1682 35.1708 32.9963 33.3427C34.8283 31.5107 35.3947 29.2958 35.5158 26.7958C35.6408 24.6435 35.6174 22.5068 35.6174 20.3505ZM32.1799 29.5615C31.8947 30.2724 31.551 30.8037 31.0002 31.3505C30.4494 31.9013 29.9221 32.2451 29.2111 32.5302C27.1564 33.3466 22.2775 33.163 20.0002 33.163C17.7228 33.163 12.84 33.3466 10.7853 32.5341C10.0744 32.249 9.54315 31.9052 8.99628 31.3544C8.4455 30.8037 8.10175 30.2763 7.81659 29.5654C7.00409 27.5068 7.18769 22.6279 7.18769 20.3505C7.18769 18.0732 7.00409 13.1904 7.81659 11.1357C8.10175 10.4247 8.4455 9.8935 8.99628 9.34662C9.54706 8.79975 10.0744 8.45209 10.7853 8.16693C12.84 7.35443 17.7228 7.53803 20.0002 7.53803C22.2775 7.53803 27.1603 7.35443 29.215 8.16693C29.926 8.45209 30.4572 8.79584 31.0041 9.34662C31.5549 9.8974 31.8986 10.4247 32.1838 11.1357C32.9963 13.1904 32.8127 18.0732 32.8127 20.3505C32.8127 22.6279 32.9963 27.5068 32.1799 29.5615Z" fill="#C31513"/>
</svg>
