<?xml version="1.0" encoding="UTF-8"?><svg id="Badges" xmlns="http://www.w3.org/2000/svg" viewBox="0 0 700 300"><defs><style>.cls-1{fill:#fff;}</style></defs><path id="GeForce_RTX" class="cls-1" d="M147.08,146.2v5.68c-20.78-2.61-27.89-25.51-27.89-25.51,0,0,9.31-13.73,27.89-15.15v6.15c-12.52,1.35-20.06,9.71-20.06,9.71,0,0,4.36,16.32,20.06,19.12Zm1.82-35.08c16.83-.53,27.87,14.46,27.87,14.46,0,0-11.92,16.56-24.71,16.56-1.84,0-3.49-.3-4.97-.8v4.85c1.47,.26,3.04,.41,4.71,.41,18.24,0,35.76-21.3,35.76-21.3,0,0-15.25-19.98-38.65-19.19-.61,.02-1.21,.06-1.82,.11v4.98c.6-.04,1.2-.07,1.82-.09Zm29.68,71.82h-3.11v14.57h3.11c4.51,0,7.43-2.03,7.43-7.28s-2.92-7.28-7.43-7.28Zm-19.69-50l8.76-7.39s-6.39-8.39-17.17-8.39c-1.17,0-2.29,.08-3.39,.2v5.32c6.55,.79,7.87,3.69,11.81,10.25Zm-11.83-10.25c-6.57-.79-11.7,5.35-11.7,5.35,0,0,2.88,10.34,11.73,13.31v-18.66s-.02,0-.02,0Zm56.79,17.61c-1.66-1.68-9.73-5.52-11.7-7.1-11.89,10.26-24.17,18.93-41.15,18.93-1.36,0-2.66-.09-3.92-.25v5.3c1.36,.13,2.74,.22,4.18,.22,14.94,0,41.28-7.63,52.58-17.09Zm13.06,53.73h8.9l-4.38-11.99-4.52,11.99ZM632.49,64.79V235.21H67.51V64.79H632.49ZM108.67,125.32s10.09,29.19,38.41,31.86v7.98h64.53V97.05h-64.53v9.19c-20.58,1.65-38.41,19.08-38.41,19.08Zm16.81,63.49c0-10.11-6.45-11.48-12.75-11.48h-12.99v25.65h7.3v-19.47h5.65c1.87,0,3.21,.47,4.11,1.43,1.14,1.22,1.61,3.18,1.61,6.78v11.26h7.07v-14.17Zm28.11-11.44h-7.38l-6.04,20.3-5.78-20.3h-7.81l8.26,25.61h10.43l8.33-25.61Zm10.28,0h-7.24v25.61h7.24v-25.61Zm29.21,13.09c0-3.6-.85-6.81-2.34-8.81-2.68-3.58-6.54-4.28-12.3-4.28h-10.15v25.61h11.73c6.25,0,8.29-1.04,10.5-3.37,1.56-1.64,2.57-5.23,2.57-9.15Zm10.6-13.09h-7.24v25.61h7.24v-25.61Zm32.88,25.6l-10.18-25.59h-9.66l-10.1,25.59h7.13l1.6-4.52h11.95l1.51,4.52h7.74Zm378.09,26.11V70.92H268.83V229.08h345.82Zm-294.31-85.62c-14.13,0-21.2-7.26-21.2-21.77v-2.48c0-4.63,.82-8.58,2.45-11.87,1.63-3.29,3.98-5.81,7.03-7.58,3.06-1.76,6.73-2.64,11.01-2.64h.57c4.29,0,7.9,.92,10.85,2.77,2.95,1.85,5.08,4.49,6.4,7.93l-8.53,2.99c-1.19-3.69-4.12-5.54-8.79-5.54h-.45c-3.65,0-6.44,1.18-8.37,3.53-1.93,2.36-2.9,5.78-2.9,10.28v2.87c0,4.58,.96,7.96,2.87,10.12,1.91,2.16,4.9,3.25,8.98,3.25h.38c1.66,0,3.22-.13,4.71-.38,1.48-.25,2.78-.64,3.88-1.15v-8.21h-9.55l1.08-7.77h17.38v20.5c-2.16,1.7-4.73,2.98-7.7,3.85-2.97,.87-6.18,1.3-9.61,1.3h-.51Zm25.91-.89v-44.56h29.6v7.89h-20.31v10.25h16.49l-1.08,7.89h-15.41v10.63h20.69v7.89h-29.99Zm38.13,0v-44.56h29.6v7.89h-20.31v11.4h16.36l-1.08,7.89h-15.28v17.38h-9.29Zm54.24,.89c-4.33,0-8.03-.89-11.11-2.67-3.08-1.78-5.43-4.31-7.07-7.58-1.64-3.27-2.45-7.15-2.45-11.65v-2.55c0-4.5,.82-8.38,2.45-11.65,1.63-3.27,3.99-5.79,7.07-7.58,3.08-1.78,6.78-2.67,11.11-2.67h.64c4.33,0,8.03,.89,11.11,2.67,3.08,1.78,5.43,4.31,7.07,7.58,1.63,3.27,2.45,7.15,2.45,11.65v2.55c0,4.5-.82,8.38-2.45,11.65-1.63,3.27-3.99,5.79-7.07,7.58-3.08,1.78-6.78,2.67-11.11,2.67h-.64Zm.06-8.15h.51c3.48,0,6.25-1.12,8.31-3.37,2.06-2.25,3.09-5.64,3.09-10.19v-2.93c0-4.54-1.03-7.94-3.09-10.19-2.06-2.25-4.83-3.37-8.31-3.37h-.51c-3.48,0-6.25,1.13-8.31,3.37-2.06,2.25-3.09,5.65-3.09,10.19v2.93c0,4.54,1.03,7.94,3.09,10.19,2.06,2.25,4.83,3.37,8.31,3.37Zm28.2,7.26v-44.56h16.87c5.18,0,9.28,1.21,12.32,3.63,3.03,2.42,4.55,5.77,4.55,10.06v1.21c0,3.01-.73,5.56-2.2,7.64-1.46,2.08-3.51,3.65-6.14,4.71l9.74,17.32h-10.12l-8.79-15.92h-6.94v15.92h-9.29Zm9.29-23.94h7.32c2.25,0,4.12-.42,5.6-1.27,1.49-.85,2.23-2.27,2.23-4.27v-1.59c0-1.91-.74-3.3-2.23-4.17-1.49-.87-3.35-1.31-5.6-1.31h-7.32v12.61Zm50.87,24.83c-6.62,0-11.65-1.93-15.09-5.79-3.44-3.86-5.16-9.25-5.16-16.17v-2.48c0-4.5,.78-8.38,2.36-11.65,1.57-3.27,3.86-5.79,6.88-7.58,3.01-1.78,6.68-2.67,11.01-2.67h.51c4.54,0,8.32,1,11.33,2.99,3.01,2,5.13,4.82,6.37,8.47l-8.66,3.06c-.59-2.21-1.69-3.82-3.28-4.84-1.59-1.02-3.51-1.53-5.76-1.53h-.38c-3.48,0-6.2,1.13-8.15,3.37-1.95,2.25-2.93,5.65-2.93,10.19v2.87c0,4.71,.94,8.16,2.83,10.35,1.89,2.19,4.64,3.28,8.24,3.28h.38c2.29,0,4.27-.5,5.92-1.5,1.66-1,2.82-2.6,3.5-4.81l8.47,3.31c-1.27,3.52-3.44,6.26-6.49,8.21-3.06,1.95-6.85,2.93-11.4,2.93h-.51Zm25.08-.89v-44.56h29.6v7.89h-20.31v10.25h16.49l-1.08,7.89h-15.41v10.63h20.69v7.89h-29.98Zm-251.02,60.35v-44.57h8.28l20.18,29.1v-29.1h8.85v44.57h-8.28l-20.18-29.1v29.1h-8.85Zm65.89,.89c-4.33,0-8.03-.89-11.11-2.67-3.08-1.78-5.43-4.31-7.07-7.58-1.64-3.27-2.45-7.15-2.45-11.65v-2.55c0-4.5,.82-8.38,2.45-11.65,1.63-3.27,3.99-5.79,7.07-7.58s6.78-2.67,11.11-2.67h.64c4.33,0,8.03,.89,11.11,2.67,3.08,1.78,5.43,4.31,7.07,7.58,1.63,3.27,2.45,7.15,2.45,11.65v2.55c0,4.5-.82,8.38-2.45,11.65-1.64,3.27-3.99,5.79-7.07,7.58-3.08,1.78-6.78,2.67-11.11,2.67h-.64Zm.06-8.15h.51c3.48,0,6.25-1.13,8.31-3.37,2.06-2.25,3.09-5.65,3.09-10.19v-2.93c0-4.54-1.03-7.94-3.09-10.19-2.06-2.25-4.83-3.37-8.31-3.37h-.51c-3.48,0-6.25,1.13-8.31,3.37-2.06,2.25-3.09,5.65-3.09,10.19v2.93c0,4.54,1.03,7.94,3.09,10.19,2.06,2.25,4.83,3.37,8.31,3.37Zm24.19-37.31h10.06l8.21,31.13,8.09-31.13h8.53l8.09,31.13,8.21-31.13h9.55l-13.69,44.57h-8.72l-7.96-29.92-7.96,29.92h-8.72l-13.69-44.57Z"/></svg>