<svg width="40" height="41" viewBox="0 0 40 41" fill="none" xmlns="http://www.w3.org/2000/svg">
<path fill-rule="evenodd" clip-rule="evenodd" d="M20.7037 4.75164C22.4094 4.72559 24.102 4.73859 25.7946 4.72559C25.8988 6.71777 26.6149 8.74898 28.0731 10.1552C29.5314 11.6005 31.5886 12.2646 33.5937 12.4859V17.7332C31.7188 17.6681 29.8309 17.2775 28.1252 16.4702C27.383 16.1317 26.693 15.702 26.0159 15.2593C26.0029 19.0613 26.029 22.8634 25.9899 26.6524C25.8857 28.4753 25.2868 30.2852 24.2322 31.7825C22.5265 34.2825 19.5709 35.9101 16.5372 35.9622C14.6753 36.0663 12.8134 35.5585 11.2249 34.6211C8.59484 33.0716 6.74594 30.2331 6.47254 27.1863C6.44648 26.5352 6.43348 25.8842 6.45949 25.2462C6.69387 22.7722 7.91777 20.4025 9.81875 18.7879C11.9801 16.9129 15.0008 16.0145 17.8262 16.5484C17.8522 18.4754 17.7741 20.4025 17.7741 22.3295C16.4851 21.9129 14.9748 22.03 13.842 22.8113C13.0217 23.3452 12.3968 24.1654 12.0712 25.0899C11.7978 25.754 11.8759 26.4831 11.8889 27.1863C12.2014 29.3216 14.2586 31.1185 16.4461 30.9232C17.9043 30.9102 19.2975 30.0638 20.0527 28.8268C20.3 28.3971 20.5735 27.9545 20.5865 27.4466C20.7167 25.1159 20.6646 22.7983 20.6777 20.4676C20.6907 15.2202 20.6646 9.98594 20.7037 4.75164Z" fill="#C31513"/>
</svg>
